<svg xmlns="http://www.w3.org/2000/svg" viewBox="0 0 120.3 47.3"><path d="M60.243 18.22c4.8-4.2 9.4-7.8 13.8-10.7 4.4-3 8.2-5 11.2-6s6.3-1.5 9.9-1.5c7.5 0 13.6 2.3 18.2 6.9 4.7 4.6 7 10.1 7 16.6 0 4.4-1 8.5-3.1 12.3s-5 6.6-8.8 8.6c-3.8 1.9-8.1 2.9-13 2.9-6.4 0-12-1.2-16.7-3.7s-10.9-7.2-18.5-14.2c-7.9 7.2-14.2 11.9-18.8 14.3-4.7 2.4-10.1 3.6-16.3 3.6-7.9 0-14-2.2-18.5-6.7-4.4-4.5-6.6-10.2-6.6-17.1 0-6.4 2.3-12 6.9-16.6 4.7-4.6 10.8-6.9 18.3-6.9 3.6 0 7 .5 10 1.5s6.7 3 11.1 6c4.5 2.9 9.1 6.5 13.9 10.7m6.5 5.1c7.2 7.1 13 11.9 17.6 14.5 4.7 2.5 9.3 3.8 13.9 3.8 5.7 0 10.2-1.7 13.5-5.1 3.2-3.4 4.9-7.6 4.9-12.5 0-5.3-1.6-9.7-4.9-13.2-3.2-3.5-7.4-5.3-12.6-5.3-3 0-5.8.5-8.6 1.6-2.8 1-6.1 2.8-9.9 5.5-3.9 2.7-8.5 6.2-13.9 10.7m-13.1 0c-4.9-4.1-9.2-7.5-13.1-10.1-3.8-2.7-7.2-4.6-10.1-5.8-2.9-1.1-6.1-1.7-9.5-1.7-4.9 0-9 1.7-12.2 5.2-3.2 3.4-4.9 7.8-4.9 13.2 0 3.7.8 6.9 2.5 9.4 1.7 2.6 3.7 4.6 6.2 6s5.6 2.1 9.3 2.1c4.9 0 9.6-1.3 14.2-3.9 4.6-2.5 10.4-7.3 17.6-14.4"/></svg>